<svg width="1233" height="1332" viewBox="0 0 1233 1332" fill="none" xmlns="http://www.w3.org/2000/svg">
<path d="M1187.64 1137.24C1124.27 1289.92 936.782 1410.39 720.866 1265.14C614.473 1193.56 613.821 998.9 677.187 846.22C740.554 693.54 928.959 667.072 1046.04 718.704C1215.54 793.545 1251.01 984.557 1187.77 1137.11L1187.64 1137.24Z" fill="white" stroke="url(#paint0_linear_5_38)" stroke-width="2" stroke-miterlimit="10"/>
<path d="M1044.35 579.194C1044.35 579.194 1042 630.565 1005.49 687.543C1002.76 690.672 1009.41 702.798 1012.4 706.188C1016.71 711.012 1021.66 715.314 1027.4 720.269C1048.52 738.523 1105.89 772.292 1112.93 765.512C1112.93 765.512 1142.4 714.271 1142.4 656.12L1057.91 589.755L1044.48 579.194H1044.35Z" stroke="url(#paint1_linear_5_38)" stroke-width="2" stroke-miterlimit="10"/>
<path d="M1027.92 575.152C1027.92 575.152 1025.57 626.523 989.066 683.501C986.328 686.63 992.978 698.756 995.977 702.146C1000.28 706.97 1005.23 711.272 1010.97 716.227C1032.09 734.481 1085.68 760.818 1092.72 753.908C1092.72 753.908 1118.41 709.056 1125.97 651.948L1041.48 585.582L1028.05 575.021L1027.92 575.152Z" fill="url(#paint2_linear_5_38)" stroke="url(#paint3_linear_5_38)" stroke-width="2" stroke-miterlimit="10"/>
<path d="M1114.63 1064.61C1052.95 1241.8 886.845 1342.33 743.553 1289.26C600.261 1236.2 534.156 1049.49 595.828 872.297C657.499 695.105 823.609 594.579 966.901 647.645C1110.19 700.711 1176.3 887.421 1114.63 1064.61Z" fill="url(#paint4_linear_5_38)" stroke="url(#paint5_linear_5_38)" stroke-width="2" stroke-miterlimit="10"/>
<path d="M794.012 1130.07C788.927 1129.15 783.842 1127.72 778.887 1125.89C711.087 1100.73 681.751 1006.72 713.434 915.975C744.987 825.228 825.695 771.901 893.364 797.065C906.924 802.02 918.92 809.843 929.09 819.882C970.291 859.649 983.981 934.359 958.687 1006.98C929.35 1091.21 858.03 1143.1 793.881 1130.2L794.012 1130.07Z" fill="white" stroke="url(#paint6_linear_5_38)" stroke-width="2" stroke-miterlimit="10"/>
<path d="M794.011 1130.07C752.81 1090.3 738.989 1015.59 764.284 942.965C793.62 858.867 864.94 806.844 929.219 819.752C970.421 859.519 984.111 934.229 958.817 1006.85C929.48 1091.08 858.16 1142.97 794.011 1130.07Z" fill="url(#paint7_linear_5_38)" stroke="url(#paint8_linear_5_38)" stroke-width="2" stroke-miterlimit="10"/>
<path d="M680.838 1009.72C621.253 1187.7 426.198 1342.33 185.379 1201.52C66.8601 1132.15 45.6076 944.268 105.193 766.425C164.779 588.451 375.74 508.525 504.689 554.551C691.399 621.177 740.554 831.878 680.969 1009.72H680.838Z" fill="white" stroke="url(#paint9_linear_5_38)" stroke-width="2" stroke-miterlimit="10"/>
<path d="M552.682 950.008C598.705 767.861 530.971 593.661 401.395 560.921C271.818 528.181 129.466 649.3 83.4436 831.447C37.4209 1013.59 105.155 1187.8 234.731 1220.53C364.308 1253.27 506.66 1132.16 552.682 950.008Z" fill="url(#paint10_linear_5_38)" stroke="url(#paint11_linear_5_38)" stroke-width="2" stroke-miterlimit="10"/>
<path d="M445.314 921.885C476.237 799.499 430.729 682.454 343.67 660.457C256.61 638.46 160.967 719.841 130.044 842.226C99.1211 964.612 144.629 1081.66 231.688 1103.65C318.747 1125.65 414.391 1044.27 445.314 921.885Z" stroke="url(#paint12_linear_5_38)" stroke-width="2" stroke-miterlimit="10"/>
<path d="M609.258 492.358L612.517 493.792C609.127 499.398 600.131 515.045 588.787 538.644C588.787 538.644 588.787 538.731 588.787 538.905C587.875 540.861 586.962 542.947 585.919 545.033C580.573 556.507 574.706 569.806 568.708 584.539C566.883 589.103 565.057 593.796 563.102 598.751C562.059 603.054 548.108 604.227 543.544 603.706C536.895 602.793 530.506 600.968 522.813 598.751C495.041 590.928 447.842 560.809 449.276 550.509C449.276 550.509 450.32 547.901 452.275 543.208C456.187 533.298 464.01 514.262 474.18 491.706C475.353 489.098 476.527 486.23 477.83 483.492C477.83 483.492 477.83 483.405 477.83 483.231C484.089 469.671 491.13 455.068 498.692 440.595L601.174 488.446L604.433 489.88L609.127 492.097L609.258 492.358Z" fill="url(#paint13_linear_5_38)" stroke="url(#paint14_linear_5_38)" stroke-width="2" stroke-miterlimit="10"/>
<path d="M613.951 491.445L613.169 494.183L612.517 493.922C613.43 492.358 613.951 491.445 613.951 491.445Z" fill="url(#paint15_linear_5_38)" stroke="url(#paint16_linear_5_38)" stroke-width="2" stroke-miterlimit="10"/>
<path d="M624.643 496.791C624.643 496.791 602.086 535.124 576.531 601.489C575.488 605.922 554.366 604.488 549.933 603.836C549.933 603.836 581.746 523.78 609.257 486.621L624.643 496.791Z" stroke="url(#paint17_linear_5_38)" stroke-width="2" stroke-miterlimit="10"/>
<path d="M1140.7 690.02C1139.4 691.975 1137.05 692.627 1134.84 691.975L1128.45 689.629H1128.05L1123.23 687.803L1024.14 618.569C1016.97 613.615 1014.23 604.227 1017.23 595.883C1116.19 324.162 1091.55 171.743 1048.91 89.2104C1046.43 84.3862 1043.7 79.6923 1041.09 75.2593C1040.83 74.6074 1040.31 73.9555 1040.05 73.4339C1020.62 41.4898 1067.82 59.6132 1052.95 49.0521C1053.74 49.3129 1003.67 20.2373 1004.45 20.6284L1137.44 98.598C1137.44 98.598 1137.7 98.598 1137.96 98.8588L1141.22 100.684L1153.22 107.595C1153.35 107.595 1153.61 107.725 1153.74 107.855C1153.74 107.855 1153.87 107.986 1154 107.986C1177.08 124.675 1194.29 146.449 1206.42 171.743C1206.68 172.395 1206.94 172.917 1207.2 173.569C1279.69 336.288 1155.44 652.73 1140.57 689.759L1140.7 690.02Z" fill="url(#paint18_linear_5_38)" stroke="url(#paint19_linear_5_38)" stroke-width="2" stroke-miterlimit="10"/>
<path d="M1143.05 101.727C1141.88 101.075 1140.83 100.423 1139.53 99.7715C1105.63 81.7785 1072.25 74.0859 1039.39 74.2163C840.689 75.5201 669.364 370.449 608.736 488.707C608.214 489.62 607.823 490.402 607.432 491.184C593.742 518.043 586.049 535.254 585.136 536.949C581.094 535.515 577.183 533.82 573.271 532.125C571.446 531.342 569.751 530.56 567.926 529.778C562.971 527.692 557.104 525.084 550.715 522.216C547.977 520.912 545.108 519.608 542.24 518.304C541.197 517.782 540.023 517.261 538.98 516.739C525.942 510.611 514.207 504.483 504.298 499.007C491.912 492.358 482.263 486.621 476.005 482.579C475.353 482.318 474.831 481.797 474.31 481.536C470.007 478.407 468.051 472.67 470.007 467.585C604.563 113.723 840.558 -40.3912 982.677 10.8497C983.459 11.1104 1010.45 24.4096 1011.23 24.6703C1017.36 27.0173 997.15 16.8473 1002.89 19.8461L1143.31 101.858L1143.05 101.727Z" fill="url(#paint20_linear_5_38)" stroke="url(#paint21_linear_5_38)" stroke-width="2" stroke-miterlimit="10"/>
<path d="M1156.87 109.811L1154.13 108.247C1154.13 108.247 1154 108.116 1153.87 108.116C1154.91 108.638 1155.83 109.29 1156.87 109.811Z" fill="url(#paint22_linear_5_38)" stroke="url(#paint23_linear_5_38)" stroke-width="2" stroke-miterlimit="10"/>
<path d="M1140.96 689.498C1140.96 689.498 1140.7 690.02 1140.57 690.28C1139.27 692.236 1136.92 692.888 1134.7 692.236L1128.32 689.889H1127.93C1125.32 688.586 1124.67 685.717 1125.32 682.979C1171.34 486.49 1236.4 236.544 1117.23 165.094C1084.38 145.406 1089.33 147.622 1057.13 146.71C830.78 141.103 645.895 499.659 598.436 537.992C596.349 539.687 594.394 541.512 591.916 540.469L586.832 538.253C584.224 537.079 582.92 533.95 584.224 531.212C607.302 481.666 804.442 74.4771 1039 76.0417C1070.82 76.1721 1103.41 83.9951 1136.4 101.336C1136.53 101.336 1136.66 101.336 1136.92 101.597C1139.27 102.77 1141.62 104.074 1143.83 105.378C1144.48 105.639 1145.01 106.03 1145.53 106.421C1145.79 106.421 1146.05 106.682 1146.18 106.812C1148.26 107.855 1150.22 109.159 1152.31 110.333C1152.44 110.333 1152.7 110.463 1152.83 110.593C1152.83 110.593 1152.96 110.724 1153.09 110.724C1176.17 127.413 1193.38 149.057 1205.63 174.351C1205.89 175.003 1206.16 175.525 1206.42 176.177C1283.73 340.069 1158.04 649.21 1141.09 689.498H1140.96Z" fill="white" stroke="url(#paint24_linear_5_38)" stroke-width="2" stroke-miterlimit="10"/>
<defs>
<linearGradient id="paint0_linear_5_38" x1="621.253" y1="1012.59" x2="1230.02" y2="1012.59" gradientUnits="userSpaceOnUse">
<stop stop-color="white"/>
<stop offset="1" stop-color="white"/>
</linearGradient>
<linearGradient id="paint1_linear_5_38" x1="991.674" y1="666.29" x2="1155.31" y2="666.29" gradientUnits="userSpaceOnUse">
<stop stop-color="white"/>
<stop offset="1" stop-color="white"/>
</linearGradient>
<linearGradient id="paint2_linear_5_38" x1="1118.73" y1="635.777" x2="969.482" y2="707.283" gradientUnits="userSpaceOnUse">
<stop stop-color="#F0A35D"/>
<stop offset="1" stop-color="#D7C574"/>
</linearGradient>
<linearGradient id="paint3_linear_5_38" x1="975.376" y1="658.728" x2="1139.79" y2="658.728" gradientUnits="userSpaceOnUse">
<stop stop-color="white"/>
<stop offset="1" stop-color="white"/>
</linearGradient>
<linearGradient id="paint4_linear_5_38" x1="927.364" y1="628.597" x2="792.506" y2="1315.71" gradientUnits="userSpaceOnUse">
<stop stop-color="#F0A35D"/>
<stop offset="1" stop-color="#D7C574"/>
</linearGradient>
<linearGradient id="paint5_linear_5_38" x1="559.581" y1="968.52" x2="1150.74" y2="968.52" gradientUnits="userSpaceOnUse">
<stop stop-color="white"/>
<stop offset="1" stop-color="white"/>
</linearGradient>
<linearGradient id="paint6_linear_5_38" x1="687.618" y1="961.479" x2="984.633" y2="961.479" gradientUnits="userSpaceOnUse">
<stop stop-color="white"/>
<stop offset="1" stop-color="white"/>
</linearGradient>
<linearGradient id="paint7_linear_5_38" x1="950.994" y1="1029.8" x2="772.107" y2="920.147" gradientUnits="userSpaceOnUse">
<stop stop-color="#B7C3A7"/>
<stop offset="0.24" stop-color="#C1BD99"/>
<stop offset="0.7" stop-color="#DBAE77"/>
<stop offset="1" stop-color="#F0A35D"/>
</linearGradient>
<linearGradient id="paint8_linear_5_38" x1="738.468" y1="974.909" x2="984.633" y2="974.909" gradientUnits="userSpaceOnUse">
<stop stop-color="white"/>
<stop offset="1" stop-color="white"/>
</linearGradient>
<linearGradient id="paint9_linear_5_38" x1="59.9498" y1="899.025" x2="717.737" y2="899.025" gradientUnits="userSpaceOnUse">
<stop stop-color="white"/>
<stop offset="1" stop-color="white"/>
</linearGradient>
<linearGradient id="paint10_linear_5_38" x1="69.0918" y1="890.415" x2="567.289" y2="890.415" gradientUnits="userSpaceOnUse">
<stop stop-color="#F0A35D"/>
<stop offset="1" stop-color="#D7C574"/>
</linearGradient>
<linearGradient id="paint11_linear_5_38" x1="56.0534" y1="890.415" x2="580.327" y2="890.415" gradientUnits="userSpaceOnUse">
<stop stop-color="white"/>
<stop offset="1" stop-color="white"/>
</linearGradient>
<linearGradient id="paint12_linear_5_38" x1="107.503" y1="881.78" x2="468.275" y2="881.779" gradientUnits="userSpaceOnUse">
<stop stop-color="white"/>
<stop offset="1" stop-color="white"/>
</linearGradient>
<linearGradient id="paint13_linear_5_38" x1="489.304" y1="445.941" x2="584.876" y2="623.655" gradientUnits="userSpaceOnUse">
<stop stop-color="#F0A35D"/>
<stop offset="1" stop-color="#D7C574"/>
</linearGradient>
<linearGradient id="paint14_linear_5_38" x1="436.238" y1="520.26" x2="631.293" y2="520.26" gradientUnits="userSpaceOnUse">
<stop stop-color="white"/>
<stop offset="1" stop-color="white"/>
</linearGradient>
<linearGradient id="paint15_linear_5_38" x1="612.908" y1="491.967" x2="614.082" y2="494.183" gradientUnits="userSpaceOnUse">
<stop stop-color="#F2EACC"/>
<stop offset="0.24" stop-color="#EDE2BE"/>
<stop offset="0.67" stop-color="#E3CF9C"/>
<stop offset="1" stop-color="#DABF7F"/>
</linearGradient>
<linearGradient id="paint16_linear_5_38" x1="594.396" y1="455.198" x2="655.538" y2="455.198" gradientUnits="userSpaceOnUse">
<stop stop-color="white"/>
<stop offset="1" stop-color="white"/>
</linearGradient>
<linearGradient id="paint17_linear_5_38" x1="531.679" y1="543.207" x2="642.114" y2="543.207" gradientUnits="userSpaceOnUse">
<stop stop-color="white"/>
<stop offset="1" stop-color="white"/>
</linearGradient>
<linearGradient id="paint18_linear_5_38" x1="1004.58" y1="356.498" x2="1229.88" y2="356.498" gradientUnits="userSpaceOnUse">
<stop stop-color="#F0A35D"/>
<stop offset="1" stop-color="#D7C574"/>
</linearGradient>
<linearGradient id="paint19_linear_5_38" x1="974.202" y1="356.498" x2="1242.92" y2="356.498" gradientUnits="userSpaceOnUse">
<stop stop-color="white"/>
<stop offset="1" stop-color="white"/>
</linearGradient>
<linearGradient id="paint20_linear_5_38" x1="468.964" y1="269.14" x2="1143.05" y2="269.14" gradientUnits="userSpaceOnUse">
<stop stop-color="#F0A35D"/>
<stop offset="1" stop-color="#D7C574"/>
</linearGradient>
<linearGradient id="paint21_linear_5_38" x1="455.926" y1="272.269" x2="1149.57" y2="272.269" gradientUnits="userSpaceOnUse">
<stop stop-color="white"/>
<stop offset="1" stop-color="white"/>
</linearGradient>
<linearGradient id="paint22_linear_5_38" x1="1155.71" y1="108.59" x2="1153.85" y2="109.638" gradientUnits="userSpaceOnUse">
<stop stop-color="#D4B56A"/>
<stop offset="0.68" stop-color="#D7BB77"/>
<stop offset="1" stop-color="#DABF7F"/>
</linearGradient>
<linearGradient id="paint23_linear_5_38" x1="1147.87" y1="108.638" x2="1163.65" y2="108.638" gradientUnits="userSpaceOnUse">
<stop stop-color="white"/>
<stop offset="1" stop-color="white"/>
</linearGradient>
<linearGradient id="paint24_linear_5_38" x1="569.985" y1="386.864" x2="1244.33" y2="387.923" gradientUnits="userSpaceOnUse">
<stop stop-color="white"/>
<stop offset="1" stop-color="white"/>
</linearGradient>
</defs>
</svg>
