<svg xmlns="http://www.w3.org/2000/svg" viewBox="0 0 128 128" role="img" aria-label="Circuit pattern">
<defs>
<linearGradient id="g" x1="0" y1="0" x2="1" y2="1"><stop stop-color="#1E3159"/><stop offset="1" stop-color="#7DB6AD"/></linearGradient>
<radialGradient id="r" cx="50%" cy="40%" r="70%"><stop stop-color="#AFD5BC" stop-opacity="0.35"/><stop offset="1" stop-color="#1E3159" stop-opacity="0"/></radialGradient>
</defs>
<rect width="128" height="128" rx="20" fill="#1E3159"/>
<rect width="128" height="128" rx="20" fill="url(#g)" opacity="0.34"/>
<rect width="128" height="128" rx="20" fill="url(#r)"/>
<g fill="none" stroke="#AFD5BC" stroke-width="3.5" stroke-linecap="round" stroke-linejoin="round" opacity="0.92">
<path d="M10 50 H44 L64 30 H100" />
<path d="M44 50 L64 72 H118" />
<path d="M28 102 H70 L92 82 H124" />
</g>
<g fill="#dfd7d7" opacity="0.92">
<circle cx="44" cy="50" r="4.5" />
<circle cx="64" cy="30" r="4.5" />
<circle cx="64" cy="72" r="4.5" />
<circle cx="92" cy="82" r="4.5" />
</g>
<g fill="#AFD5BC" opacity="0.5">
<circle cx="75" cy="11" r="2" />
<circle cx="87" cy="39" r="2" />
<circle cx="87" cy="121" r="2" />
<circle cx="27" cy="43" r="2" />
</g>
<path d="M-20 122 C28 94 70 148 148 102" fill="none" stroke="#dfd7d7" stroke-opacity="0.18" stroke-width="18"/>
</svg>