<svg xmlns="http://www.w3.org/2000/svg" viewBox="0 0 128 128" role="img" aria-label="Circuit pattern">
<defs>
<linearGradient id="g" x1="0" y1="0" x2="1" y2="1"><stop stop-color="#1E3159"/><stop offset="1" stop-color="#AFD5BC"/></linearGradient>
<radialGradient id="r" cx="48%" cy="34%" r="70%"><stop stop-color="#dfd7d7" stop-opacity="0.3"/><stop offset="1" stop-color="#1E3159" stop-opacity="0"/></radialGradient>
<pattern id="p" width="16" height="16" patternUnits="userSpaceOnUse"><path d="M16 0H0V16" fill="none" stroke="#dfd7d7" stroke-opacity="0.08" stroke-width="1"/></pattern>
</defs>
<rect width="128" height="128" rx="20" fill="#1E3159"/>
<rect width="128" height="128" rx="20" fill="url(#g)" opacity="0.32"/>
<rect width="128" height="128" rx="20" fill="url(#r)"/>
<rect width="128" height="128" rx="20" fill="url(#p)"/>
<g fill="none" stroke="#AFD5BC" stroke-width="3.4" stroke-linecap="round" stroke-linejoin="round" opacity="0.94">
<path d="M14 28 H64 C78 28 76 52 92 52 H118" />
<path d="M20 78 H52 C66 78 66 98 82 98 H116" />
<path d="M50 14 V58 H76 V116" />
</g>
<g fill="#dfd7d7" opacity="0.94">
<circle cx="20" cy="20" r="4.2" />
<circle cx="42" cy="50" r="4.2" />
<circle cx="70" cy="76" r="4.2" />
<circle cx="96" cy="44" r="4.2" />
<circle cx="112" cy="96" r="4.2" />
<circle cx="58" cy="108" r="4.2" />
<circle cx="82" cy="22" r="4.2" />
</g>
<g fill="#AFD5BC" opacity="0.45">
<circle cx="56" cy="88" r="1.8" />
<circle cx="79" cy="119" r="1.8" />
<circle cx="102" cy="22" r="1.8" />
<circle cx="125" cy="53" r="1.8" />
<circle cx="20" cy="84" r="1.8" />
<circle cx="43" cy="115" r="1.8" />
<circle cx="66" cy="18" r="1.8" />
<circle cx="89" cy="49" r="1.8" />
<circle cx="112" cy="80" r="1.8" />
</g>
<path d="M-18 120 C26 86 78 148 146 94" fill="none" stroke="#dfd7d7" stroke-opacity="0.16" stroke-width="16"/>
</svg>