<svg xmlns="http://www.w3.org/2000/svg" viewBox="0 0 128 128" role="img" aria-label="Circuit pattern">
<defs>
<linearGradient id="g" x1="0" y1="0" x2="1" y2="1"><stop stop-color="#1E3159"/><stop offset="1" stop-color="#dfd7d7"/></linearGradient>
<radialGradient id="r" cx="48%" cy="34%" r="70%"><stop stop-color="#7DB6AD" stop-opacity="0.3"/><stop offset="1" stop-color="#1E3159" stop-opacity="0"/></radialGradient>
<pattern id="p" width="16" height="16" patternUnits="userSpaceOnUse"><path d="M16 0H0V16" fill="none" stroke="#dfd7d7" stroke-opacity="0.08" stroke-width="1"/></pattern>
</defs>
<rect width="128" height="128" rx="20" fill="#1E3159"/>
<rect width="128" height="128" rx="20" fill="url(#g)" opacity="0.32"/>
<rect width="128" height="128" rx="20" fill="url(#r)"/>
<rect width="128" height="128" rx="20" fill="url(#p)"/>
<g fill="none" stroke="#dfd7d7" stroke-width="3.4" stroke-linecap="round" stroke-linejoin="round" opacity="0.94">
<path d="M8 30 H52 V54 H100 V78 H120" />
<path d="M30 104 H58 V78" />
<path d="M74 18 V42 H112" />
</g>
<g fill="#7DB6AD" opacity="0.94">
<circle cx="20" cy="20" r="4.2" />
<circle cx="42" cy="50" r="4.2" />
<circle cx="70" cy="76" r="4.2" />
<circle cx="96" cy="44" r="4.2" />
<circle cx="112" cy="96" r="4.2" />
</g>
<g fill="#AFD5BC" opacity="0.45">
<circle cx="63" cy="99" r="1.8" />
<circle cx="86" cy="2" r="1.8" />
<circle cx="109" cy="33" r="1.8" />
<circle cx="4" cy="64" r="1.8" />
<circle cx="27" cy="95" r="1.8" />
<circle cx="50" cy="126" r="1.8" />
<circle cx="73" cy="29" r="1.8" />
<circle cx="96" cy="60" r="1.8" />
<circle cx="119" cy="91" r="1.8" />
</g>
<path d="M-18 120 C26 86 78 148 146 94" fill="none" stroke="#dfd7d7" stroke-opacity="0.16" stroke-width="16"/>
</svg>