<svg xmlns="http://www.w3.org/2000/svg" viewBox="0 0 128 128" role="img" aria-label="Circuit pattern">
<defs>
<linearGradient id="g" x1="0" y1="0" x2="1" y2="1"><stop stop-color="#1E3159"/><stop offset="1" stop-color="#7DB6AD"/></linearGradient>
<radialGradient id="r" cx="48%" cy="34%" r="70%"><stop stop-color="#dfd7d7" stop-opacity="0.3"/><stop offset="1" stop-color="#1E3159" stop-opacity="0"/></radialGradient>
<pattern id="p" width="16" height="16" patternUnits="userSpaceOnUse"><path d="M16 0H0V16" fill="none" stroke="#dfd7d7" stroke-opacity="0.08" stroke-width="1"/></pattern>
</defs>
<rect width="128" height="128" rx="20" fill="#1E3159"/>
<rect width="128" height="128" rx="20" fill="url(#g)" opacity="0.32"/>
<rect width="128" height="128" rx="20" fill="url(#r)"/>
<rect width="128" height="128" rx="20" fill="url(#p)"/>
<g fill="none" stroke="#7DB6AD" stroke-width="3.4" stroke-linecap="round" stroke-linejoin="round" opacity="0.94">
<path d="M12 36 H36 C58 36 58 64 82 64 H118" />
<path d="M22 92 H52 C72 92 74 110 108 110" />
<path d="M62 18 V104" />
</g>
<g fill="#dfd7d7" opacity="0.94">
<circle cx="20" cy="20" r="4.2" />
<circle cx="42" cy="50" r="4.2" />
<circle cx="70" cy="76" r="4.2" />
<circle cx="96" cy="44" r="4.2" />
<circle cx="112" cy="96" r="4.2" />
<circle cx="58" cy="108" r="4.2" />
</g>
<g fill="#AFD5BC" opacity="0.45">
<circle cx="70" cy="110" r="1.8" />
<circle cx="93" cy="13" r="1.8" />
<circle cx="116" cy="44" r="1.8" />
<circle cx="11" cy="75" r="1.8" />
<circle cx="34" cy="106" r="1.8" />
<circle cx="57" cy="9" r="1.8" />
<circle cx="80" cy="40" r="1.8" />
<circle cx="103" cy="71" r="1.8" />
<circle cx="126" cy="102" r="1.8" />
</g>
<path d="M-18 120 C26 86 78 148 146 94" fill="none" stroke="#dfd7d7" stroke-opacity="0.16" stroke-width="16"/>
</svg>