<svg xmlns="http://www.w3.org/2000/svg" viewBox="0 0 128 128" role="img" aria-label="Circuit pattern">
<defs>
<linearGradient id="g" x1="0" y1="0" x2="1" y2="1"><stop stop-color="#1E3159"/><stop offset="1" stop-color="#7DB6AD"/></linearGradient>
<radialGradient id="r" cx="50%" cy="40%" r="70%"><stop stop-color="#AFD5BC" stop-opacity="0.35"/><stop offset="1" stop-color="#1E3159" stop-opacity="0"/></radialGradient>
</defs>
<rect width="128" height="128" rx="20" fill="#1E3159"/>
<rect width="128" height="128" rx="20" fill="url(#g)" opacity="0.34"/>
<rect width="128" height="128" rx="20" fill="url(#r)"/>
<g fill="none" stroke="#AFD5BC" stroke-width="3.5" stroke-linecap="round" stroke-linejoin="round" opacity="0.92">
<path d="M16 24 H50 V48 H82 V74 H120" />
<path d="M34 92 H68 V66 H102" />
<path d="M20 116 H112" />
</g>
<g fill="#dfd7d7" opacity="0.92">
<circle cx="50" cy="48" r="4.5" />
<circle cx="82" cy="74" r="4.5" />
<circle cx="68" cy="66" r="4.5" />
<circle cx="102" cy="66" r="4.5" />
</g>
<g fill="#AFD5BC" opacity="0.5">
<circle cx="117" cy="1" r="2" />
<circle cx="85" cy="3" r="2" />
<circle cx="115" cy="91" r="2" />
<circle cx="97" cy="91" r="2" />
</g>
<path d="M-20 122 C28 94 70 148 148 102" fill="none" stroke="#dfd7d7" stroke-opacity="0.18" stroke-width="18"/>
</svg>