<svg xmlns="http://www.w3.org/2000/svg" viewBox="0 0 128 128" role="img" aria-label="Circuit pattern">
<defs>
<linearGradient id="g" x1="0" y1="0" x2="1" y2="1"><stop stop-color="#1E3159"/><stop offset="1" stop-color="#7DB6AD"/></linearGradient>
<radialGradient id="r" cx="50%" cy="40%" r="70%"><stop stop-color="#AFD5BC" stop-opacity="0.35"/><stop offset="1" stop-color="#1E3159" stop-opacity="0"/></radialGradient>
</defs>
<rect width="128" height="128" rx="20" fill="#1E3159"/>
<rect width="128" height="128" rx="20" fill="url(#g)" opacity="0.34"/>
<rect width="128" height="128" rx="20" fill="url(#r)"/>
<g fill="none" stroke="#AFD5BC" stroke-width="3.5" stroke-linecap="round" stroke-linejoin="round" opacity="0.92">
<path d="M12 84 H46 V46 H84 V22 H116" />
<path d="M46 84 V116 H102" />
<path d="M22 30 H58" />
</g>
<g fill="#dfd7d7" opacity="0.92">
<circle cx="46" cy="46" r="4.5" />
<circle cx="84" cy="22" r="4.5" />
<circle cx="102" cy="116" r="4.5" />
<circle cx="58" cy="30" r="4.5" />
</g>
<g fill="#AFD5BC" opacity="0.5">
<circle cx="89" cy="119" r="2" />
<circle cx="99" cy="127" r="2" />
<circle cx="97" cy="85" r="2" />
<circle cx="45" cy="39" r="2" />
</g>
<path d="M-20 122 C28 94 70 148 148 102" fill="none" stroke="#dfd7d7" stroke-opacity="0.18" stroke-width="18"/>
</svg>