<svg xmlns="http://www.w3.org/2000/svg" viewBox="0 0 128 128" role="img" aria-label="Circuit pattern">
<defs>
<linearGradient id="g" x1="0" y1="0" x2="1" y2="1"><stop stop-color="#1E3159"/><stop offset="1" stop-color="#7DB6AD"/></linearGradient>
<radialGradient id="r" cx="48%" cy="34%" r="70%"><stop stop-color="#AFD5BC" stop-opacity="0.3"/><stop offset="1" stop-color="#1E3159" stop-opacity="0"/></radialGradient>
<pattern id="p" width="16" height="16" patternUnits="userSpaceOnUse"><path d="M16 0H0V16" fill="none" stroke="#dfd7d7" stroke-opacity="0.08" stroke-width="1"/></pattern>
</defs>
<rect width="128" height="128" rx="20" fill="#1E3159"/>
<rect width="128" height="128" rx="20" fill="url(#g)" opacity="0.32"/>
<rect width="128" height="128" rx="20" fill="url(#r)"/>
<rect width="128" height="128" rx="20" fill="url(#p)"/>
<g fill="none" stroke="#7DB6AD" stroke-width="3.4" stroke-linecap="round" stroke-linejoin="round" opacity="0.94">
<path d="M8 20 H38 V44 H74 V68 H120" />
<path d="M28 92 H58 V74 H94 V108" />
<path d="M52 8 V34 H96" />
</g>
<g fill="#AFD5BC" opacity="0.94">
<circle cx="20" cy="20" r="4.2" />
<circle cx="42" cy="50" r="4.2" />
<circle cx="70" cy="76" r="4.2" />
<circle cx="96" cy="44" r="4.2" />
<circle cx="112" cy="96" r="4.2" />
<circle cx="58" cy="108" r="4.2" />
<circle cx="82" cy="22" r="4.2" />
</g>
<g fill="#AFD5BC" opacity="0.45">
<circle cx="35" cy="55" r="1.8" />
<circle cx="58" cy="86" r="1.8" />
<circle cx="81" cy="117" r="1.8" />
<circle cx="104" cy="20" r="1.8" />
<circle cx="127" cy="51" r="1.8" />
<circle cx="22" cy="82" r="1.8" />
<circle cx="45" cy="113" r="1.8" />
<circle cx="68" cy="16" r="1.8" />
<circle cx="91" cy="47" r="1.8" />
</g>
<path d="M-18 120 C26 86 78 148 146 94" fill="none" stroke="#dfd7d7" stroke-opacity="0.16" stroke-width="16"/>
</svg>