<svg xmlns="http://www.w3.org/2000/svg" viewBox="0 0 128 128" role="img" aria-label="Circuit pattern">
<defs>
<linearGradient id="g" x1="0" y1="0" x2="1" y2="1"><stop stop-color="#1E3159"/><stop offset="1" stop-color="#7DB6AD"/></linearGradient>
<radialGradient id="r" cx="50%" cy="40%" r="70%"><stop stop-color="#AFD5BC" stop-opacity="0.35"/><stop offset="1" stop-color="#1E3159" stop-opacity="0"/></radialGradient>
</defs>
<rect width="128" height="128" rx="20" fill="#1E3159"/>
<rect width="128" height="128" rx="20" fill="url(#g)" opacity="0.34"/>
<rect width="128" height="128" rx="20" fill="url(#r)"/>
<g fill="none" stroke="#AFD5BC" stroke-width="3.5" stroke-linecap="round" stroke-linejoin="round" opacity="0.92">
<path d="M6 20 H42 V38 H70 V54 H104" />
<path d="M42 38 V82 H72" />
<path d="M24 68 H60 V96 H116" />
</g>
<g fill="#dfd7d7" opacity="0.92">
<circle cx="42" cy="38" r="4.5" />
<circle cx="70" cy="54" r="4.5" />
<circle cx="72" cy="82" r="4.5" />
<circle cx="60" cy="96" r="4.5" />
</g>
<g fill="#AFD5BC" opacity="0.5">
<circle cx="61" cy="79" r="2" />
<circle cx="1" cy="31" r="2" />
<circle cx="15" cy="43" r="2" />
<circle cx="59" cy="113" r="2" />
</g>
<path d="M-20 122 C28 94 70 148 148 102" fill="none" stroke="#dfd7d7" stroke-opacity="0.18" stroke-width="18"/>
</svg>