<svg width="1233" height="1277" viewBox="0 0 1233 1277" fill="none" xmlns="http://www.w3.org/2000/svg">
<path d="M476.284 55.2142C0.646671 231.368 -171.247 917.453 312.697 1072.95L364.244 1272.74L519.737 1100.21C1458.02 1045.26 1494.65 -276.007 476.284 55.0011V55.2142Z" fill="white" stroke="url(#paint0_linear_5_44)" stroke-width="2" stroke-miterlimit="10"/>
<path d="M414.726 218.801C-60.911 394.955 -169.543 921.5 314.614 1076.99L366.161 1276.79L521.654 1104.26C1459.94 1049.3 1433.1 -112.419 414.939 218.588L414.726 218.801Z" fill="url(#paint1_linear_5_44)"/>
<g style="mix-blend-mode:multiply">
<path d="M386.609 707.431C392.787 722.555 385.332 739.808 370.208 745.772C355.085 751.949 337.832 744.494 331.868 729.371C325.69 714.247 333.146 696.994 348.269 691.03C363.392 684.853 380.645 692.308 386.609 707.431Z" fill="#D4B56A"/>
<path d="M386.609 707.431C392.787 722.555 385.332 739.808 370.208 745.772C355.085 751.949 337.832 744.494 331.868 729.371C325.69 714.247 333.146 696.994 348.269 691.03C363.392 684.853 380.645 692.308 386.609 707.431Z" stroke="#E8E4B9" stroke-width="2" stroke-miterlimit="10"/>
</g>
<g style="mix-blend-mode:multiply">
<path d="M587.685 626.49C593.862 641.613 586.407 658.866 571.284 664.831C556.16 671.008 538.907 663.553 532.943 648.429C526.766 633.306 534.221 616.053 549.344 610.089C564.468 603.912 581.721 611.367 587.685 626.49Z" fill="#D4B56A"/>
<path d="M587.685 626.49C593.862 641.613 586.407 658.866 571.284 664.831C556.16 671.008 538.907 663.553 532.943 648.429C526.766 633.306 534.221 616.053 549.344 610.089C564.468 603.912 581.721 611.367 587.685 626.49Z" stroke="#E8E4B9" stroke-width="2" stroke-miterlimit="10"/>
</g>
<g style="mix-blend-mode:multiply">
<path d="M788.76 545.549C794.938 560.672 787.482 577.925 772.359 583.89C757.236 590.067 739.983 582.611 734.019 567.488C727.841 552.365 735.296 535.112 750.42 529.148C765.543 523.184 782.796 530.426 788.76 545.549Z" fill="#D4B56A"/>
<path d="M788.76 545.549C794.938 560.672 787.482 577.925 772.359 583.89C757.236 590.067 739.983 582.611 734.019 567.488C727.841 552.365 735.296 535.112 750.42 529.148C765.543 523.184 782.796 530.426 788.76 545.549Z" stroke="#E8E4B9" stroke-width="2" stroke-miterlimit="10"/>
</g>
<defs>
<linearGradient id="paint0_linear_5_44" x1="2.56371" y1="648.642" x2="1253.11" y2="648.642" gradientUnits="userSpaceOnUse">
<stop stop-color="white"/>
<stop offset="1" stop-color="white"/>
</linearGradient>
<linearGradient id="paint1_linear_5_44" x1="1036.44" y1="993.45" x2="8.44957" y2="321.951" gradientUnits="userSpaceOnUse">
<stop stop-color="#B8BD99"/>
<stop offset="0.26" stop-color="#D4AF7A"/>
<stop offset="0.51" stop-color="#E8A664"/>
<stop offset="0.67" stop-color="#F0A35D"/>
<stop offset="0.82" stop-color="#E6B065"/>
<stop offset="1" stop-color="#D7C574"/>
</linearGradient>
</defs>
</svg>
