<svg width="1233" height="1271" viewBox="0 0 1233 1271" fill="none" xmlns="http://www.w3.org/2000/svg">
<path d="M719.203 485.562L678.834 546.822C671.908 557.313 662.618 565.181 651.808 569.303C584.413 594.968 471.243 630.562 405.875 650.608C375.133 659.975 343.716 648.734 325.136 621.195C254.025 516.098 72.2776 245.955 5.72707 144.23C-0.184784 135.238 -0.353674 122.873 5.22036 112.944L35.1174 57.3046C118.559 42.1302 305.036 51.8718 318.38 61.4261C345.405 81.0967 631.877 375.219 719.034 485.749L719.203 485.562Z" fill="white" stroke="url(#paint0_linear_5_6)" stroke-width="2" stroke-miterlimit="10"/>
<path d="M706.197 494.18C647.924 515.349 534.585 547.009 463.643 566.305C425.807 576.421 385.944 561.247 361.959 526.964C280.544 411.938 96.601 151.349 41.0296 69.4817C32.9219 57.6794 39.5093 41.0062 52.6843 38.9454C69.0685 36.51 90.8579 33.5126 114.843 30.3279C124.809 28.8291 134.775 27.7051 145.247 26.2064C172.61 22.2722 201.494 18.7128 228.689 14.966C239.33 13.6547 249.802 12.1559 259.937 10.8446C287.3 7.28512 311.117 4.10037 327.332 2.22698C341.014 0.540927 354.358 5.97374 363.817 16.8394C422.935 87.0916 642.518 347.493 718.697 440.975C733.223 458.585 726.636 486.499 706.197 493.992V494.18Z" fill="url(#paint1_linear_5_6)" stroke="url(#paint2_linear_5_6)" stroke-width="2" stroke-miterlimit="10"/>
<g style="mix-blend-mode:multiply" opacity="0.2">
<path d="M314.664 246.892L279.024 248.765L121.093 29.9532C131.059 28.4545 141.024 27.3304 151.497 25.8317L314.664 246.892Z" fill="url(#paint3_linear_5_6)" style="mix-blend-mode:multiply"/>
<path d="M314.664 246.892L279.024 248.765L121.093 29.9532C131.059 28.4545 141.024 27.3304 151.497 25.8317L314.664 246.892Z" stroke="black" stroke-width="2" stroke-miterlimit="10"/>
</g>
<g style="mix-blend-mode:multiply" opacity="0.2">
<path d="M439.995 230.593L404.355 232.467L235.276 14.0294C245.917 12.718 256.39 11.2193 266.524 9.9079L440.164 230.593H439.995Z" fill="url(#paint4_linear_5_6)" style="mix-blend-mode:multiply"/>
<path d="M439.995 230.593L404.355 232.467L235.276 14.0294C245.917 12.718 256.39 11.2193 266.524 9.9079L440.164 230.593H439.995Z" stroke="black" stroke-width="2" stroke-miterlimit="10"/>
</g>
<path d="M1219.01 976.203L1149.76 1081.68C1137.93 1099.66 1121.89 1113.52 1103.64 1120.64C989.122 1165.79 796.564 1228.74 685.59 1264.33C633.397 1281 580.359 1262.08 549.111 1215.44C430.198 1036.9 125.991 577.733 14.8482 404.632C5.0514 389.457 4.88251 368.288 14.3415 351.053L66.0279 255.135C207.575 227.409 523.436 240.71 546.07 257.196C591.676 290.355 1072.73 788.677 1219.01 976.203Z" fill="white"/>
<path d="M1219.52 900.143C1243.67 929.93 1232.35 976.953 1198.06 989.317C1099.76 1024.72 908.552 1077.18 788.963 1108.84C725.115 1125.7 658.058 1099.85 617.857 1042.33C481.209 847.501 173.286 407.442 80.0477 268.623C66.7038 248.765 77.8518 220.665 99.979 217.48C210.953 201.743 467.865 169.521 562.961 157.906C585.933 155.096 608.736 164.275 624.276 183.197C723.426 301.97 1091.65 742.591 1219.35 900.331L1219.52 900.143Z" fill="url(#paint5_linear_5_6)"/>
<defs>
<linearGradient id="paint0_linear_5_6" x1="-15.7245" y1="351.427" x2="740.824" y2="351.427" gradientUnits="userSpaceOnUse">
<stop stop-color="white"/>
<stop offset="1" stop-color="white"/>
</linearGradient>
<linearGradient id="paint1_linear_5_6" x1="433.336" y1="425.969" x2="158.807" y2="-294.264" gradientUnits="userSpaceOnUse">
<stop stop-color="#F0A35D"/>
<stop offset="1" stop-color="#D7C574"/>
</linearGradient>
<linearGradient id="paint2_linear_5_6" x1="20.5914" y1="285.671" x2="743.358" y2="285.671" gradientUnits="userSpaceOnUse">
<stop stop-color="white"/>
<stop offset="1" stop-color="white"/>
</linearGradient>
<linearGradient id="paint3_linear_5_6" x1="331.254" y1="216.367" x2="91.1716" y2="83.6654" gradientUnits="userSpaceOnUse">
<stop stop-color="white"/>
<stop offset="1" stop-color="white"/>
</linearGradient>
<linearGradient id="paint4_linear_5_6" x1="455.214" y1="202.866" x2="206.632" y2="65.4668" gradientUnits="userSpaceOnUse">
<stop stop-color="white"/>
<stop offset="1" stop-color="white"/>
</linearGradient>
<linearGradient id="paint5_linear_5_6" x1="1198.23" y1="1013.86" x2="12.0083" y2="351.966" gradientUnits="userSpaceOnUse">
<stop stop-color="#B7C3A7"/>
<stop offset="0.24" stop-color="#C1BD99"/>
<stop offset="0.7" stop-color="#DBAE77"/>
<stop offset="1" stop-color="#F0A35D"/>
</linearGradient>
</defs>
</svg>
